<svg width="10" height="10" viewBox="0 0 10 10" fill="none" xmlns="http://www.w3.org/2000/svg">
<g id="ChevronDown">
<path id="Vector" d="M0.939832 2.81554C0.980472 2.7748 1.02875 2.74248 1.0819 2.72042C1.13506 2.69836 1.19204 2.68701 1.24958 2.68701C1.30713 2.68701 1.36411 2.69836 1.41726 2.72042C1.47038 2.74246 1.51864 2.77477 1.55927 2.81548L1.55923 2.81544L1.47084 2.90381L1.55933 2.81554L0.939832 2.81554ZM0.939832 2.81554L1.02833 2.90382L0.939832 2.81554ZM5.11935 7.16427L5.16726 7.27972C5.11411 7.30177 5.05713 7.31313 4.99958 7.31313C4.94204 7.31313 4.88505 7.30177 4.8319 7.27972C4.7788 7.25768 4.73056 7.2254 4.68994 7.18471C4.68991 7.18467 4.68987 7.18463 4.68983 7.1846L0.940056 3.43482C0.940031 3.4348 0.940006 3.43477 0.939981 3.43475L5.11935 7.16427ZM5.11935 7.16427L5.16726 7.27972C5.22036 7.25768 5.2686 7.2254 5.30922 7.18471L5.11935 7.16427ZM8.43994 2.81544L4.99958 6.2564L5.30933 7.1846L9.05922 3.43471C9.09988 3.39405 9.13214 3.34577 9.15415 3.29264C9.17615 3.23952 9.18748 3.18257 9.18748 3.12507C9.18748 3.06757 9.17615 3.01062 9.15415 2.9575C9.13214 2.90437 9.09988 2.85609 9.05922 2.81543C9.01856 2.77477 8.97029 2.74251 8.91716 2.72051C8.86403 2.6985 8.80709 2.68718 8.74958 2.68718C8.69208 2.68718 8.63514 2.6985 8.58201 2.72051L8.62984 2.83599L8.58201 2.72051C8.52888 2.74251 8.48061 2.77477 8.43994 2.81543L8.43994 2.81544Z" fill="#272727" stroke="#272727" stroke-width="0.25"/>
</g>
</svg>
