<svg width="34" height="34" viewBox="0 0 34 34" fill="none" xmlns="http://www.w3.org/2000/svg">
<g id="Profile">
<path id="Vector" fill-rule="evenodd" clip-rule="evenodd" d="M27.625 29.75C27.625 29.75 29.75 29.75 29.75 27.625C29.75 25.5 27.625 19.125 17 19.125C6.375 19.125 4.25 25.5 4.25 27.625C4.25 29.75 6.375 29.75 6.375 29.75H27.625ZM6.38563 27.744V27.7397V27.744ZM6.42175 27.625H27.5782C27.5882 27.6238 27.5981 27.6224 27.608 27.6208L27.625 27.6165C27.6229 27.0938 27.2978 25.5212 25.857 24.0805C24.4715 22.695 21.8641 21.25 17 21.25C12.1337 21.25 9.5285 22.695 8.143 24.0805C6.70225 25.5212 6.37925 27.0938 6.375 27.6165C6.39055 27.6195 6.40614 27.6223 6.42175 27.625ZM27.6165 27.744V27.7397V27.744ZM17 14.875C18.1272 14.875 19.2082 14.4272 20.0052 13.6302C20.8022 12.8332 21.25 11.7522 21.25 10.625C21.25 9.49783 20.8022 8.41683 20.0052 7.6198C19.2082 6.82277 18.1272 6.375 17 6.375C15.8728 6.375 14.7918 6.82277 13.9948 7.6198C13.1978 8.41683 12.75 9.49783 12.75 10.625C12.75 11.7522 13.1978 12.8332 13.9948 13.6302C14.7918 14.4272 15.8728 14.875 17 14.875ZM23.375 10.625C23.375 12.3158 22.7034 13.9373 21.5078 15.1328C20.3123 16.3284 18.6908 17 17 17C15.3092 17 13.6877 16.3284 12.4922 15.1328C11.2966 13.9373 10.625 12.3158 10.625 10.625C10.625 8.93425 11.2966 7.31274 12.4922 6.11719C13.6877 4.92165 15.3092 4.25 17 4.25C18.6908 4.25 20.3123 4.92165 21.5078 6.11719C22.7034 7.31274 23.375 8.93425 23.375 10.625Z" fill="#272727"/>
</g>
</svg>
