<svg width="86" height="15" viewBox="0 0 86 15" fill="none" xmlns="http://www.w3.org/2000/svg">
<g id="wordmark">
<path d="M0.432617 8.14895C0.432617 6.87248 0.71401 5.73233 1.2768 4.72851C1.85182 3.71229 2.62871 2.92534 3.60746 2.36766C4.59846 1.79758 5.70568 1.51254 6.92912 1.51254C8.36056 1.51254 9.61459 1.88433 10.6912 2.62791C11.7679 3.37148 12.5203 4.4001 12.9485 5.71375H9.99386C9.70023 5.0941 9.28426 4.62936 8.74594 4.31954C8.21986 4.00972 7.60814 3.85481 6.91077 3.85481C6.16447 3.85481 5.49769 4.0345 4.91044 4.3939C4.33541 4.7409 3.88274 5.23662 3.55241 5.88105C3.23431 6.52548 3.07526 7.28145 3.07526 8.14895C3.07526 9.00407 3.23431 9.76003 3.55241 10.4169C3.88274 11.0613 4.33541 11.5632 4.91044 11.9226C5.49769 12.2696 6.16447 12.4431 6.91077 12.4431C7.60814 12.4431 8.21986 12.2882 8.74594 11.9784C9.28426 11.6562 9.70023 11.1852 9.99386 10.5656H12.9485C12.5203 11.8916 11.7679 12.9264 10.6912 13.67C9.62683 14.4012 8.37279 14.7668 6.92912 14.7668C5.70568 14.7668 4.59846 14.4879 3.60746 13.9303C2.62871 13.3602 1.85182 12.5732 1.2768 11.5694C0.71401 10.5656 0.432617 9.42543 0.432617 8.14895Z" fill="#56B280"/>
<path d="M14.4823 9.4688C14.4823 8.4278 14.6842 7.50452 15.0879 6.69898C15.5039 5.89344 16.0605 5.2738 16.7579 4.84004C17.4675 4.40629 18.2566 4.18942 19.1253 4.18942C19.8838 4.18942 20.5445 4.34433 21.1073 4.65415C21.6823 4.96397 22.1411 5.35435 22.4836 5.82528V4.35672H25.0712V14.6552H22.4836V13.1495C22.1533 13.6328 21.6945 14.0356 21.1073 14.3578C20.5322 14.6676 19.8655 14.8225 19.1069 14.8225C18.2505 14.8225 17.4675 14.5995 16.7579 14.1533C16.0605 13.7072 15.5039 13.0813 15.0879 12.2758C14.6842 11.4579 14.4823 10.5222 14.4823 9.4688ZM22.4836 9.50598C22.4836 8.87394 22.3613 8.33485 22.1166 7.8887C21.8719 7.43016 21.5416 7.08316 21.1256 6.8477C20.7096 6.59984 20.2631 6.47591 19.7859 6.47591C19.3088 6.47591 18.8683 6.59364 18.4646 6.82911C18.0609 7.06457 17.7305 7.41158 17.4736 7.87011C17.2289 8.31626 17.1066 8.84915 17.1066 9.4688C17.1066 10.0884 17.2289 10.6337 17.4736 11.1047C17.7305 11.5632 18.0609 11.9164 18.4646 12.1643C18.8806 12.4121 19.321 12.536 19.7859 12.536C20.2631 12.536 20.7096 12.4183 21.1256 12.1828C21.5416 11.935 21.8719 11.588 22.1166 11.1418C22.3613 10.6833 22.4836 10.138 22.4836 9.50598Z" fill="#56B280"/>
<path d="M33.2145 4.208C34.4257 4.208 35.4045 4.59838 36.1508 5.37914C36.8971 6.1475 37.2702 7.22568 37.2702 8.61369V14.6552H34.701V8.96689C34.701 8.14895 34.4991 7.52311 34.0954 7.08936C33.6917 6.64321 33.1411 6.42014 32.4437 6.42014C31.7341 6.42014 31.1714 6.64321 30.7554 7.08936C30.3516 7.52311 30.1498 8.14895 30.1498 8.96689V14.6552H27.5805V4.35672H30.1498V5.63939C30.4923 5.19324 30.9267 4.84624 31.4527 4.59838C31.9911 4.33813 32.5783 4.208 33.2145 4.208Z" fill="#56B280"/>
<path d="M39.0528 9.4688C39.0528 8.4278 39.2547 7.50452 39.6584 6.69898C40.0744 5.89344 40.6372 5.2738 41.3468 4.84004C42.0564 4.40629 42.8455 4.18942 43.7141 4.18942C44.3748 4.18942 45.0049 4.33813 45.6044 4.63556C46.2038 4.9206 46.681 5.30478 47.0358 5.7881V0.899095H49.6417V14.6552H47.0358V13.1309C46.7177 13.639 46.2711 14.048 45.6961 14.3578C45.1211 14.6676 44.4543 14.8225 43.6958 14.8225C42.8394 14.8225 42.0564 14.5995 41.3468 14.1533C40.6372 13.7072 40.0744 13.0813 39.6584 12.2758C39.2547 11.4579 39.0528 10.5222 39.0528 9.4688ZM47.0541 9.50598C47.0541 8.87394 46.9318 8.33485 46.6871 7.8887C46.4424 7.43016 46.1121 7.08316 45.6961 6.8477C45.2801 6.59984 44.8336 6.47591 44.3564 6.47591C43.8793 6.47591 43.4389 6.59364 43.0351 6.82911C42.6314 7.06457 42.301 7.41158 42.0441 7.87011C41.7994 8.31626 41.6771 8.84915 41.6771 9.4688C41.6771 10.0884 41.7994 10.6337 42.0441 11.1047C42.301 11.5632 42.6314 11.9164 43.0351 12.1643C43.4511 12.4121 43.8915 12.536 44.3564 12.536C44.8336 12.536 45.2801 12.4183 45.6961 12.1828C46.1121 11.935 46.4424 11.588 46.6871 11.1418C46.9318 10.6833 47.0541 10.138 47.0541 9.50598Z" fill="#56B280"/>
<path d="M54.7203 0.899095V14.6552H52.151V0.899095H54.7203Z" fill="#56B280"/>
<path d="M66.7098 9.28291C66.7098 9.65469 66.6854 9.9893 66.6364 10.2867H59.204C59.2651 11.0303 59.5221 11.6128 59.9748 12.0341C60.4274 12.4555 60.9841 12.6662 61.6448 12.6662C62.599 12.6662 63.2781 12.251 63.6818 11.4207H66.4529C66.1593 12.4121 65.5965 13.2301 64.7645 13.8745C63.9326 14.5065 62.911 14.8225 61.6998 14.8225C60.7211 14.8225 59.8402 14.6057 59.0572 14.1719C58.2864 13.7258 57.6808 13.0999 57.2403 12.2944C56.8121 11.4888 56.598 10.5594 56.598 9.50598C56.598 8.44019 56.8121 7.50452 57.2403 6.69898C57.6685 5.89344 58.268 5.2738 59.0388 4.84004C59.8096 4.40629 60.6966 4.18942 61.6998 4.18942C62.6663 4.18942 63.5289 4.4001 64.2874 4.82145C65.0582 5.24281 65.6515 5.84387 66.0675 6.62462C66.4957 7.39299 66.7098 8.27908 66.7098 9.28291ZM64.0488 8.53933C64.0366 7.87011 63.798 7.33722 63.3331 6.94064C62.8682 6.53168 62.2993 6.32719 61.6264 6.32719C60.9902 6.32719 60.4519 6.52548 60.0115 6.92205C59.5832 7.30624 59.3202 7.84533 59.2223 8.53933H64.0488Z" fill="#56B280"/>
<path d="M67.9245 9.4688C67.9245 8.4278 68.1264 7.50452 68.5301 6.69898C68.9461 5.89344 69.5027 5.2738 70.2001 4.84004C70.9097 4.40629 71.6988 4.18942 72.5675 4.18942C73.326 4.18942 73.9867 4.34433 74.5494 4.65415C75.1245 4.96397 75.5833 5.35435 75.9258 5.82528V4.35672H78.5134V14.6552H75.9258V13.1495C75.5955 13.6328 75.1367 14.0356 74.5494 14.3578C73.9744 14.6676 73.3076 14.8225 72.5491 14.8225C71.6927 14.8225 70.9097 14.5995 70.2001 14.1533C69.5027 13.7072 68.9461 13.0813 68.5301 12.2758C68.1264 11.4579 67.9245 10.5222 67.9245 9.4688ZM75.9258 9.50598C75.9258 8.87394 75.8035 8.33485 75.5588 7.8887C75.3141 7.43016 74.9838 7.08316 74.5678 6.8477C74.1518 6.59984 73.7053 6.47591 73.2281 6.47591C72.751 6.47591 72.3105 6.59364 71.9068 6.82911C71.5031 7.06457 71.1727 7.41158 70.9158 7.87011C70.6711 8.31626 70.5488 8.84915 70.5488 9.4688C70.5488 10.0884 70.6711 10.6337 70.9158 11.1047C71.1727 11.5632 71.5031 11.9164 71.9068 12.1643C72.3228 12.4121 72.7632 12.536 73.2281 12.536C73.7053 12.536 74.1518 12.4183 74.5678 12.1828C74.9838 11.935 75.3141 11.588 75.5588 11.1418C75.8035 10.6833 75.9258 10.138 75.9258 9.50598Z" fill="#56B280"/>
<path d="M85.6841 6.4945H83.9039V14.6552H81.298V6.4945H80.1418V4.35672H81.298V3.83622C81.298 2.57214 81.6528 1.64267 82.3624 1.04781C83.072 0.45295 84.1425 0.174109 85.574 0.211288V2.40483C84.95 2.39244 84.5157 2.49778 84.271 2.72085C84.0263 2.94393 83.9039 3.3467 83.9039 3.92916V4.35672H85.6841V6.4945Z" fill="#56B280"/>
</g>
</svg>
